<svg width="1700" height="860" xmlns="http://www.w3.org/2000/svg"><g><path d="M-44.08549935556948,-121.86031493358314L-132.17761491425335,245.45456137508154L-63.77667442895472,90.8927323948592Z" fill="#fffffe" stroke="#fffffe"></path><path d="M-44.08549935556948,-121.86031493358314L-63.77667442895472,90.8927323948592L21.146458284929395,-43.393336180597544Z" fill="#fcfefc" stroke="#fcfefc"></path><path d="M-44.08549935556948,-121.86031493358314L21.146458284929395,-43.393336180597544L200.13445733115077,-100.80834676511586Z" fill="#f9fdf7" stroke="#f9fdf7"></path><path d="M-44.08549935556948,-121.86031493358314L200.13445733115077,-100.80834676511586L546.0850581899285,-96.18072029203176Z" fill="#f1faee" stroke="#f1faee"></path><path d="M-44.08549935556948,-121.86031493358314L546.0850581899285,-96.18072029203176L1248.046508654952,-121.32987482473254Z" fill="#d5eed2" stroke="#d5eed2"></path><path d="M21.146458284929395,-43.393336180597544L-63.77667442895472,90.8927323948592L84.32401017285883,68.68750786408782Z" fill="#fbfefa" stroke="#fbfefa"></path><path d="M21.146458284929395,-43.393336180597544L84.32401017285883,68.68750786408782L200.13445733115077,-100.80834676511586Z" fill="#f7fcf5" stroke="#f7fcf5"></path><path d="M200.13445733115077,-100.80834676511586L84.32401017285883,68.68750786408782L198.1725991051644,50.719095803797245Z" fill="#f4fbf2" stroke="#f4fbf2"></path><path d="M200.13445733115077,-100.80834676511586L198.1725991051644,50.719095803797245L326.2773802690208,24.63489714078605Z" fill="#f0f9ee" stroke="#f0f9ee"></path><path d="M200.13445733115077,-100.80834676511586L326.2773802690208,24.63489714078605L382.13247262872756,-63.198281954973936Z" fill="#ecf8e9" stroke="#ecf8e9"></path><path d="M200.13445733115077,-100.80834676511586L382.13247262872756,-63.198281954973936L546.0850581899285,-96.18072029203176Z" fill="#e7f6e3" stroke="#e7f6e3"></path><path d="M382.13247262872756,-63.198281954973936L326.2773802690208,24.63489714078605L575.2196811698377,80.44198866002262Z" fill="#e3f4df" stroke="#e3f4df"></path><path d="M382.13247262872756,-63.198281954973936L575.2196811698377,80.44198866002262L546.0850581899285,-96.18072029203176Z" fill="#dcf1d9" stroke="#dcf1d9"></path><path d="M546.0850581899285,-96.18072029203176L575.2196811698377,80.44198866002262L645.4901153873652,-40.659443121403456Z" fill="#d5eed1" stroke="#d5eed1"></path><path d="M546.0850581899285,-96.18072029203176L645.4901153873652,-40.659443121403456L841.0046002082527,-58.239048616960645Z" fill="#cceaca" stroke="#cceaca"></path><path d="M546.0850581899285,-96.18072029203176L841.0046002082527,-58.239048616960645L1248.046508654952,-121.32987482473254Z" fill="#b6e0b9" stroke="#b6e0b9"></path><path d="M645.4901153873652,-40.659443121403456L575.2196811698377,80.44198866002262L665.4708660487086,59.86827244050801Z" fill="#d1edce" stroke="#d1edce"></path><path d="M645.4901153873652,-40.659443121403456L665.4708660487086,59.86827244050801L841.0046002082527,-58.239048616960645Z" fill="#c8e8c6" stroke="#c8e8c6"></path><path d="M841.0046002082527,-58.239048616960645L665.4708660487086,59.86827244050801L815.0346976239234,130.92255511321127Z" fill="#c2e6c1" stroke="#c2e6c1"></path><path d="M841.0046002082527,-58.239048616960645L815.0346976239234,130.92255511321127L936.0626870859414,84.61626428179443Z" fill="#b8e1ba" stroke="#b8e1ba"></path><path d="M841.0046002082527,-58.239048616960645L936.0626870859414,84.61626428179443L1005.1582449115813,-26.135240262374282Z" fill="#b0ddb6" stroke="#b0ddb6"></path><path d="M841.0046002082527,-58.239048616960645L1005.1582449115813,-26.135240262374282L1113.3374787680805,-57.59877732954919Z" fill="#a9dab3" stroke="#a9dab3"></path><path d="M841.0046002082527,-58.239048616960645L1113.3374787680805,-57.59877732954919L1248.046508654952,-121.32987482473254Z" fill="#a0d5ae" stroke="#a0d5ae"></path><path d="M1005.1582449115813,-26.135240262374282L936.0626870859414,84.61626428179443L1143.3593289088458,32.96420205384493Z" fill="#a4d7b0" stroke="#a4d7b0"></path><path d="M1005.1582449115813,-26.135240262374282L1143.3593289088458,32.96420205384493L1113.3374787680805,-57.59877732954919Z" fill="#9fd3ad" stroke="#9fd3ad"></path><path d="M1113.3374787680805,-57.59877732954919L1143.3593289088458,32.96420205384493L1248.046508654952,-121.32987482473254Z" fill="#99cda8" stroke="#99cda8"></path><path d="M1248.046508654952,-121.32987482473254L1143.3593289088458,32.96420205384493L1268.2879292685539,59.82043342664838Z" fill="#95c9a5" stroke="#95c9a5"></path><path d="M1248.046508654952,-121.32987482473254L1268.2879292685539,59.82043342664838L1424.6218584291637,-37.17246852815151Z" fill="#8ec1a1" stroke="#8ec1a1"></path><path d="M1248.046508654952,-121.32987482473254L1424.6218584291637,-37.17246852815151L1676.536927325651,-30.95739078707993Z" fill="#83b19a" stroke="#83b19a"></path><path d="M1248.046508654952,-121.32987482473254L1676.536927325651,-30.95739078707993L1824.230969985947,-39.864564249292016Z" fill="#80a294" stroke="#80a294"></path><path d="M1424.6218584291637,-37.17246852815151L1268.2879292685539,59.82043342664838L1472.4307009018958,132.40633604116738Z" fill="#88b89d" stroke="#88b89d"></path><path d="M1424.6218584291637,-37.17246852815151L1472.4307009018958,132.40633604116738L1533.745689773932,86.11049495637417Z" fill="#81ae99" stroke="#81ae99"></path><path d="M1424.6218584291637,-37.17246852815151L1533.745689773932,86.11049495637417L1584.8011558223516,-15.8918865211308Z" fill="#80aa98" stroke="#80aa98"></path><path d="M1424.6218584291637,-37.17246852815151L1584.8011558223516,-15.8918865211308L1676.536927325651,-30.95739078707993Z" fill="#80a495" stroke="#80a495"></path><path d="M1584.8011558223516,-15.8918865211308L1533.745689773932,86.11049495637417L1685.143592292443,75.77142658643425Z" fill="#80a094" stroke="#80a094"></path><path d="M1584.8011558223516,-15.8918865211308L1685.143592292443,75.77142658643425L1676.536927325651,-30.95739078707993Z" fill="#809a92" stroke="#809a92"></path><path d="M1676.536927325651,-30.95739078707993L1685.143592292443,75.77142658643425L1824.230969985947,-39.864564249292016Z" fill="#80918e" stroke="#80918e"></path><path d="M1824.230969985947,-39.864564249292016L1685.143592292443,75.77142658643425L1767.737549180165,210.19930271431804Z" fill="#808d8d" stroke="#808d8d"></path><path d="M1824.230969985947,-39.864564249292016L1767.737549180165,210.19930271431804L1926.7974204104394,16.239640032872558Z" fill="#808489" stroke="#808489"></path><path d="M-63.77667442895472,90.8927323948592L-132.17761491425335,245.45456137508154L131.27900814637542,205.56351170875132Z" fill="#f6fef2" stroke="#f6fef2"></path><path d="M-63.77667442895472,90.8927323948592L131.27900814637542,205.56351170875132L84.32401017285883,68.68750786408782Z" fill="#f8fdf6" stroke="#f8fdf6"></path><path d="M84.32401017285883,68.68750786408782L131.27900814637542,205.56351170875132L198.1725991051644,50.719095803797245Z" fill="#f5fbf3" stroke="#f5fbf3"></path><path d="M198.1725991051644,50.719095803797245L131.27900814637542,205.56351170875132L171.5985316503793,248.5916471388191Z" fill="#effbea" stroke="#effbea"></path><path d="M198.1725991051644,50.719095803797245L171.5985316503793,248.5916471388191L326.2773802690208,24.63489714078605Z" fill="#f1faee" stroke="#f1faee"></path><path d="M326.2773802690208,24.63489714078605L171.5985316503793,248.5916471388191L420.82142676226795,282.87609200924635Z" fill="#e5f8df" stroke="#e5f8df"></path><path d="M326.2773802690208,24.63489714078605L420.82142676226795,282.87609200924635L575.2196811698377,80.44198866002262Z" fill="#e0f4dc" stroke="#e0f4dc"></path><path d="M575.2196811698377,80.44198866002262L420.82142676226795,282.87609200924635L562.2239015903324,283.07787023484707Z" fill="#d2f1cb" stroke="#d2f1cb"></path><path d="M575.2196811698377,80.44198866002262L562.2239015903324,283.07787023484707L670.3015340957791,202.48261568136513Z" fill="#cceec6" stroke="#cceec6"></path><path d="M575.2196811698377,80.44198866002262L670.3015340957791,202.48261568136513L665.4708660487086,59.86827244050801Z" fill="#d0eccc" stroke="#d0eccc"></path><path d="M665.4708660487086,59.86827244050801L670.3015340957791,202.48261568136513L815.0346976239234,130.92255511321127Z" fill="#c6e8c3" stroke="#c6e8c3"></path><path d="M815.0346976239234,130.92255511321127L670.3015340957791,202.48261568136513L843.3317091409117,272.12128018029034Z" fill="#bae5b6" stroke="#bae5b6"></path><path d="M815.0346976239234,130.92255511321127L843.3317091409117,272.12128018029034L936.0626870859414,84.61626428179443Z" fill="#b3e1b3" stroke="#b3e1b3"></path><path d="M936.0626870859414,84.61626428179443L843.3317091409117,272.12128018029034L1027.2032640315592,253.57201664708555Z" fill="#a7ddaa" stroke="#a7ddaa"></path><path d="M936.0626870859414,84.61626428179443L1027.2032640315592,253.57201664708555L1128.3710940554738,167.4624778702855Z" fill="#9fd7a9" stroke="#9fd7a9"></path><path d="M936.0626870859414,84.61626428179443L1128.3710940554738,167.4624778702855L1143.3593289088458,32.96420205384493Z" fill="#a0d5ae" stroke="#a0d5ae"></path><path d="M1143.3593289088458,32.96420205384493L1128.3710940554738,167.4624778702855L1268.2879292685539,59.82043342664838Z" fill="#98cca8" stroke="#98cca8"></path><path d="M1268.2879292685539,59.82043342664838L1128.3710940554738,167.4624778702855L1321.3808325491846,178.66710433736444Z" fill="#91c8a1" stroke="#91c8a1"></path><path d="M1268.2879292685539,59.82043342664838L1321.3808325491846,178.66710433736444L1472.4307009018958,132.40633604116738Z" fill="#89bc9d" stroke="#89bc9d"></path><path d="M1472.4307009018958,132.40633604116738L1321.3808325491846,178.66710433736444L1411.610180195421,224.15099976584315Z" fill="#81b794" stroke="#81b794"></path><path d="M1472.4307009018958,132.40633604116738L1411.610180195421,224.15099976584315L1543.0842883698642,220.06392505019903Z" fill="#7aae8f" stroke="#7aae8f"></path><path d="M1472.4307009018958,132.40633604116738L1543.0842883698642,220.06392505019903L1533.745689773932,86.11049495637417Z" fill="#7da993" stroke="#7da993"></path><path d="M1533.745689773932,86.11049495637417L1543.0842883698642,220.06392505019903L1685.143592292443,75.77142658643425Z" fill="#7ea192" stroke="#7ea192"></path><path d="M1685.143592292443,75.77142658643425L1543.0842883698642,220.06392505019903L1767.737549180165,210.19930271431804Z" fill="#7b9889" stroke="#7b9889"></path><path d="M1926.7974204104394,16.239640032872558L1767.737549180165,210.19930271431804L1902.2033671662211,262.460840921849Z" fill="#7b8181" stroke="#7b8181"></path><path d="M1926.7974204104394,16.239640032872558L1902.2033671662211,262.460840921849L1835.80192909576,978.3968875464052Z" fill="#487650" stroke="#487650"></path><path d="M-132.17761491425335,245.45456137508154L-29.17817040346563,1015.5495353043079L-71.17815873585641,683.3599565271288Z" fill="#93d2a7" stroke="#93d2a7"></path><path d="M-132.17761491425335,245.45456137508154L-71.17815873585641,683.3599565271288L-33.22264261543751,487.8455523122102Z" fill="#b8efbf" stroke="#b8efbf"></path><path d="M-132.17761491425335,245.45456137508154L-33.22264261543751,487.8455523122102L-29.281380102038383,363.0475813150406Z" fill="#d3fbd1" stroke="#d3fbd1"></path><path d="M-132.17761491425335,245.45456137508154L-29.281380102038383,363.0475813150406L131.27900814637542,205.56351170875132Z" fill="#e7fee2" stroke="#e7fee2"></path><path d="M131.27900814637542,205.56351170875132L-29.281380102038383,363.0475813150406L171.5985316503793,248.5916471388191Z" fill="#e2fcdd" stroke="#e2fcdd"></path><path d="M171.5985316503793,248.5916471388191L-29.281380102038383,363.0475813150406L85.02459174022079,422.2092248685658Z" fill="#d3fbcf" stroke="#d3fbcf"></path><path d="M171.5985316503793,248.5916471388191L85.02459174022079,422.2092248685658L200.91173705644906,380.1001959107816Z" fill="#cef9ca" stroke="#cef9ca"></path><path d="M171.5985316503793,248.5916471388191L200.91173705644906,380.1001959107816L327.94390115886927,333.84894353337586Z" fill="#d2facc" stroke="#d2facc"></path><path d="M171.5985316503793,248.5916471388191L327.94390115886927,333.84894353337586L420.82142676226795,282.87609200924635Z" fill="#d3f8cd" stroke="#d3f8cd"></path><path d="M420.82142676226795,282.87609200924635L327.94390115886927,333.84894353337586L494.1381400823593,431.1319434642792Z" fill="#bef2b8" stroke="#bef2b8"></path><path d="M420.82142676226795,282.87609200924635L494.1381400823593,431.1319434642792L562.2239015903324,283.07787023484707Z" fill="#bbf1b5" stroke="#bbf1b5"></path><path d="M562.2239015903324,283.07787023484707L494.1381400823593,431.1319434642792L724.5471325144172,370.7342162076384Z" fill="#abeaa6" stroke="#abeaa6"></path><path d="M562.2239015903324,283.07787023484707L724.5471325144172,370.7342162076384L670.3015340957791,202.48261568136513Z" fill="#b7ecb0" stroke="#b7ecb0"></path><path d="M670.3015340957791,202.48261568136513L724.5471325144172,370.7342162076384L776.3960703089833,345.04061738960445Z" fill="#abe8a6" stroke="#abe8a6"></path><path d="M670.3015340957791,202.48261568136513L776.3960703089833,345.04061738960445L843.3317091409117,272.12128018029034Z" fill="#aee6a9" stroke="#aee6a9"></path><path d="M843.3317091409117,272.12128018029034L776.3960703089833,345.04061738960445L964.2730638943613,427.9024729784578Z" fill="#92df92" stroke="#92df92"></path><path d="M843.3317091409117,272.12128018029034L964.2730638943613,427.9024729784578L1027.2032640315592,253.57201664708555Z" fill="#90dc93" stroke="#90dc93"></path><path d="M1027.2032640315592,253.57201664708555L964.2730638943613,427.9024729784578L1078.7275941576809,387.5709693040699Z" fill="#7dd487" stroke="#7dd487"></path><path d="M1027.2032640315592,253.57201664708555L1078.7275941576809,387.5709693040699L1128.3710940554738,167.4624778702855Z" fill="#8bd495" stroke="#8bd495"></path><path d="M1128.3710940554738,167.4624778702855L1078.7275941576809,387.5709693040699L1293.9175979979336,338.74027320183814Z" fill="#7ecd8a" stroke="#7ecd8a"></path><path d="M1128.3710940554738,167.4624778702855L1293.9175979979336,338.74027320183814L1321.3808325491846,178.66710433736444Z" fill="#87c794" stroke="#87c794"></path><path d="M1321.3808325491846,178.66710433736444L1293.9175979979336,338.74027320183814L1411.610180195421,224.15099976584315Z" fill="#7cbd8c" stroke="#7cbd8c"></path><path d="M1411.610180195421,224.15099976584315L1293.9175979979336,338.74027320183814L1381.1539552733302,415.70409153588116Z" fill="#6abb7a" stroke="#6abb7a"></path><path d="M1411.610180195421,224.15099976584315L1381.1539552733302,415.70409153588116L1576.553618637845,336.1940102465451Z" fill="#62b077" stroke="#62b077"></path><path d="M1411.610180195421,224.15099976584315L1576.553618637845,336.1940102465451L1543.0842883698642,220.06392505019903Z" fill="#6daa82" stroke="#6daa82"></path><path d="M1543.0842883698642,220.06392505019903L1576.553618637845,336.1940102465451L1767.737549180165,210.19930271431804Z" fill="#6e9c7d" stroke="#6e9c7d"></path><path d="M1767.737549180165,210.19930271431804L1576.553618637845,336.1940102465451L1695.0365679804236,386.6273216251284Z" fill="#639770" stroke="#639770"></path><path d="M1767.737549180165,210.19930271431804L1695.0365679804236,386.6273216251284L1827.1497189626098,334.52411958016455Z" fill="#638d6c" stroke="#638d6c"></path><path d="M1767.737549180165,210.19930271431804L1827.1497189626098,334.52411958016455L1902.2033671662211,262.460840921849Z" fill="#6b8571" stroke="#6b8571"></path><path d="M1902.2033671662211,262.460840921849L1827.1497189626098,334.52411958016455L1826.8840184714645,535.7053129188716Z" fill="#527d5a" stroke="#527d5a"></path><path d="M1902.2033671662211,262.460840921849L1826.8840184714645,535.7053129188716L1823.4512329939753,708.9618567377329Z" fill="#316e46" stroke="#316e46"></path><path d="M1902.2033671662211,262.460840921849L1823.4512329939753,708.9618567377329L1822.770812138915,786.4480167254806Z" fill="#1f613a" stroke="#1f613a"></path><path d="M1902.2033671662211,262.460840921849L1822.770812138915,786.4480167254806L1835.80192909576,978.3968875464052Z" fill="#0f4e2e" stroke="#0f4e2e"></path><path d="M-29.281380102038383,363.0475813150406L-33.22264261543751,487.8455523122102L85.02459174022079,422.2092248685658Z" fill="#c2f4c2" stroke="#c2f4c2"></path><path d="M85.02459174022079,422.2092248685658L-33.22264261543751,487.8455523122102L116.144336219877,552.0050280913711Z" fill="#aeeab6" stroke="#aeeab6"></path><path d="M85.02459174022079,422.2092248685658L116.144336219877,552.0050280913711L200.91173705644906,380.1001959107816Z" fill="#b5eeb8" stroke="#b5eeb8"></path><path d="M200.91173705644906,380.1001959107816L116.144336219877,552.0050280913711L264.50270952656865,557.2960423585027Z" fill="#a6e7ae" stroke="#a6e7ae"></path><path d="M200.91173705644906,380.1001959107816L264.50270952656865,557.2960423585027L356.69858378358185,535.9470688551664Z" fill="#a2e6aa" stroke="#a2e6aa"></path><path d="M200.91173705644906,380.1001959107816L356.69858378358185,535.9470688551664L327.94390115886927,333.84894353337586Z" fill="#b5efb3" stroke="#b5efb3"></path><path d="M327.94390115886927,333.84894353337586L356.69858378358185,535.9470688551664L494.1381400823593,431.1319434642792Z" fill="#aaeaa9" stroke="#aaeaa9"></path><path d="M494.1381400823593,431.1319434642792L356.69858378358185,535.9470688551664L513.7056389451027,537.0601961296052Z" fill="#92df9a" stroke="#92df9a"></path><path d="M494.1381400823593,431.1319434642792L513.7056389451027,537.0601961296052L728.6478614062071,542.8394759818912Z" fill="#86d98f" stroke="#86d98f"></path><path d="M494.1381400823593,431.1319434642792L728.6478614062071,542.8394759818912L724.5471325144172,370.7342162076384Z" fill="#90df91" stroke="#90df91"></path><path d="M724.5471325144172,370.7342162076384L728.6478614062071,542.8394759818912L772.9241823870689,543.2009866274893Z" fill="#7bd583" stroke="#7bd583"></path><path d="M724.5471325144172,370.7342162076384L772.9241823870689,543.2009866274893L776.3960703089833,345.04061738960445Z" fill="#8bdd8c" stroke="#8bdd8c"></path><path d="M776.3960703089833,345.04061738960445L772.9241823870689,543.2009866274893L918.300704145804,539.674730328843Z" fill="#75d27e" stroke="#75d27e"></path><path d="M776.3960703089833,345.04061738960445L918.300704145804,539.674730328843L964.2730638943613,427.9024729784578Z" fill="#79d47f" stroke="#79d47f"></path><path d="M964.2730638943613,427.9024729784578L918.300704145804,539.674730328843L1065.2428908459842,582.3910407721996Z" fill="#57c36e" stroke="#57c36e"></path><path d="M964.2730638943613,427.9024729784578L1065.2428908459842,582.3910407721996L1078.7275941576809,387.5709693040699Z" fill="#5fc772" stroke="#5fc772"></path><path d="M1078.7275941576809,387.5709693040699L1065.2428908459842,582.3910407721996L1296.1875167582184,470.22626764141023Z" fill="#52bd69" stroke="#52bd69"></path><path d="M1078.7275941576809,387.5709693040699L1296.1875167582184,470.22626764141023L1293.9175979979336,338.74027320183814Z" fill="#62c273" stroke="#62c273"></path><path d="M1293.9175979979336,338.74027320183814L1296.1875167582184,470.22626764141023L1381.1539552733302,415.70409153588116Z" fill="#58b76c" stroke="#58b76c"></path><path d="M1381.1539552733302,415.70409153588116L1296.1875167582184,470.22626764141023L1479.2313026916236,517.5806009117514Z" fill="#43a95f" stroke="#43a95f"></path><path d="M1381.1539552733302,415.70409153588116L1479.2313026916236,517.5806009117514L1576.553618637845,336.1940102465451Z" fill="#47a462" stroke="#47a462"></path><path d="M1576.553618637845,336.1940102465451L1479.2313026916236,517.5806009117514L1631.5410657506436,482.4104874115437Z" fill="#41985a" stroke="#41985a"></path><path d="M1576.553618637845,336.1940102465451L1631.5410657506436,482.4104874115437L1695.0365679804236,386.6273216251284Z" fill="#4c945f" stroke="#4c945f"></path><path d="M1695.0365679804236,386.6273216251284L1631.5410657506436,482.4104874115437L1704.3568625953048,474.6423223055899Z" fill="#408a55" stroke="#408a55"></path><path d="M1695.0365679804236,386.6273216251284L1704.3568625953048,474.6423223055899L1827.1497189626098,334.52411958016455Z" fill="#4d885b" stroke="#4d885b"></path><path d="M1827.1497189626098,334.52411958016455L1704.3568625953048,474.6423223055899L1826.8840184714645,535.7053129188716Z" fill="#407d50" stroke="#407d50"></path><path d="M-33.22264261543751,487.8455523122102L-71.17815873585641,683.3599565271288L72.50091631896794,622.7139588911086Z" fill="#99daab" stroke="#99daab"></path><path d="M-33.22264261543751,487.8455523122102L72.50091631896794,622.7139588911086L116.144336219877,552.0050280913711Z" fill="#9de0ad" stroke="#9de0ad"></path><path d="M116.144336219877,552.0050280913711L72.50091631896794,622.7139588911086L229.76218946278095,670.1934303157032Z" fill="#8fd4a1" stroke="#8fd4a1"></path><path d="M116.144336219877,552.0050280913711L229.76218946278095,670.1934303157032L264.50270952656865,557.2960423585027Z" fill="#90d7a1" stroke="#90d7a1"></path><path d="M264.50270952656865,557.2960423585027L229.76218946278095,670.1934303157032L370.0838724710047,733.3429071027786Z" fill="#80c993" stroke="#80c993"></path><path d="M264.50270952656865,557.2960423585027L370.0838724710047,733.3429071027786L356.69858378358185,535.9470688551664Z" fill="#85d195" stroke="#85d195"></path><path d="M356.69858378358185,535.9470688551664L370.0838724710047,733.3429071027786L513.7056389451027,537.0601961296052Z" fill="#80d090" stroke="#80d090"></path><path d="M513.7056389451027,537.0601961296052L370.0838724710047,733.3429071027786L560.0870008952916,686.7157432436943Z" fill="#72c483" stroke="#72c483"></path><path d="M513.7056389451027,537.0601961296052L560.0870008952916,686.7157432436943L728.6478614062071,542.8394759818912Z" fill="#72cb81" stroke="#72cb81"></path><path d="M728.6478614062071,542.8394759818912L560.0870008952916,686.7157432436943L691.3141159527004,700.0002906750888Z" fill="#63bf75" stroke="#63bf75"></path><path d="M728.6478614062071,542.8394759818912L691.3141159527004,700.0002906750888L820.1241137366742,637.749056769535Z" fill="#5dbd70" stroke="#5dbd70"></path><path d="M728.6478614062071,542.8394759818912L820.1241137366742,637.749056769535L772.9241823870689,543.2009866274893Z" fill="#63c674" stroke="#63c674"></path><path d="M772.9241823870689,543.2009866274893L820.1241137366742,637.749056769535L918.300704145804,539.674730328843Z" fill="#5cc26f" stroke="#5cc26f"></path><path d="M918.300704145804,539.674730328843L820.1241137366742,637.749056769535L943.2752184849232,693.0957670323551Z" fill="#4db765" stroke="#4db765"></path><path d="M918.300704145804,539.674730328843L943.2752184849232,693.0957670323551L1065.2428908459842,582.3910407721996Z" fill="#46b562" stroke="#46b562"></path><path d="M1065.2428908459842,582.3910407721996L943.2752184849232,693.0957670323551L1173.3605564106256,698.7855469901115Z" fill="#33a556" stroke="#33a556"></path><path d="M1065.2428908459842,582.3910407721996L1173.3605564106256,698.7855469901115L1295.8337769191712,633.2972009014338Z" fill="#2ea152" stroke="#2ea152"></path><path d="M1065.2428908459842,582.3910407721996L1295.8337769191712,633.2972009014338L1296.1875167582184,470.22626764141023Z" fill="#38ab5a" stroke="#38ab5a"></path><path d="M1296.1875167582184,470.22626764141023L1295.8337769191712,633.2972009014338L1388.4919963683933,623.8462893571705Z" fill="#2d9f53" stroke="#2d9f53"></path><path d="M1296.1875167582184,470.22626764141023L1388.4919963683933,623.8462893571705L1479.2313026916236,517.5806009117514Z" fill="#2f9f55" stroke="#2f9f55"></path><path d="M1479.2313026916236,517.5806009117514L1388.4919963683933,623.8462893571705L1521.3150501810014,663.6245829518884Z" fill="#1e8b49" stroke="#1e8b49"></path><path d="M1479.2313026916236,517.5806009117514L1521.3150501810014,663.6245829518884L1631.5410657506436,482.4104874115437Z" fill="#248a4c" stroke="#248a4c"></path><path d="M1631.5410657506436,482.4104874115437L1521.3150501810014,663.6245829518884L1686.8497596681118,619.7038029693067Z" fill="#1e7c44" stroke="#1e7c44"></path><path d="M1631.5410657506436,482.4104874115437L1686.8497596681118,619.7038029693067L1704.3568625953048,474.6423223055899Z" fill="#2a7f4a" stroke="#2a7f4a"></path><path d="M1704.3568625953048,474.6423223055899L1686.8497596681118,619.7038029693067L1826.8840184714645,535.7053129188716Z" fill="#267544" stroke="#267544"></path><path d="M1826.8840184714645,535.7053129188716L1686.8497596681118,619.7038029693067L1823.4512329939753,708.9618567377329Z" fill="#196338" stroke="#196338"></path><path d="M-71.17815873585641,683.3599565271288L-29.17817040346563,1015.5495353043079L-31.125192549079657,838.997002216056Z" fill="#7e9b90" stroke="#7e9b90"></path><path d="M-71.17815873585641,683.3599565271288L-31.125192549079657,838.997002216056L23.506735330447555,802.0489612966776Z" fill="#7dae97" stroke="#7dae97"></path><path d="M-71.17815873585641,683.3599565271288L23.506735330447555,802.0489612966776L72.50091631896794,622.7139588911086Z" fill="#85c19d" stroke="#85c19d"></path><path d="M72.50091631896794,622.7139588911086L23.506735330447555,802.0489612966776L220.5333150923252,795.7064211554825Z" fill="#7ab695" stroke="#7ab695"></path><path d="M72.50091631896794,622.7139588911086L220.5333150923252,795.7064211554825L229.76218946278095,670.1934303157032Z" fill="#7fc096" stroke="#7fc096"></path><path d="M229.76218946278095,670.1934303157032L220.5333150923252,795.7064211554825L370.0838724710047,733.3429071027786Z" fill="#72b48b" stroke="#72b48b"></path><path d="M370.0838724710047,733.3429071027786L220.5333150923252,795.7064211554825L402.1467134077102,781.1938888672739Z" fill="#6aa883" stroke="#6aa883"></path><path d="M370.0838724710047,733.3429071027786L402.1467134077102,781.1938888672739L560.0870008952916,686.7157432436943Z" fill="#66af7e" stroke="#66af7e"></path><path d="M560.0870008952916,686.7157432436943L402.1467134077102,781.1938888672739L479.4771601539105,815.2823127340525Z" fill="#5fa678" stroke="#5fa678"></path><path d="M560.0870008952916,686.7157432436943L479.4771601539105,815.2823127340525L679.3950132653117,860.288760708645Z" fill="#579b6d" stroke="#579b6d"></path><path d="M560.0870008952916,686.7157432436943L679.3950132653117,860.288760708645L691.3141159527004,700.0002906750888Z" fill="#51a36b" stroke="#51a36b"></path><path d="M691.3141159527004,700.0002906750888L679.3950132653117,860.288760708645L782.149255508557,813.8155577145517Z" fill="#489460" stroke="#489460"></path><path d="M691.3141159527004,700.0002906750888L782.149255508557,813.8155577145517L820.1241137366742,637.749056769535Z" fill="#4aa564" stroke="#4aa564"></path><path d="M820.1241137366742,637.749056769535L782.149255508557,813.8155577145517L943.2752184849232,693.0957670323551Z" fill="#41a25d" stroke="#41a25d"></path><path d="M943.2752184849232,693.0957670323551L782.149255508557,813.8155577145517L939.5927245169878,851.1312520969659Z" fill="#368c53" stroke="#368c53"></path><path d="M943.2752184849232,693.0957670323551L939.5927245169878,851.1312520969659L1143.281193561852,788.8377630338073Z" fill="#27874d" stroke="#27874d"></path><path d="M943.2752184849232,693.0957670323551L1143.281193561852,788.8377630338073L1173.3605564106256,698.7855469901115Z" fill="#24904d" stroke="#24904d"></path><path d="M1173.3605564106256,698.7855469901115L1143.281193561852,788.8377630338073L1324.2965334188193,771.1373503971845Z" fill="#168044" stroke="#168044"></path><path d="M1173.3605564106256,698.7855469901115L1324.2965334188193,771.1373503971845L1295.8337769191712,633.2972009014338Z" fill="#1c8a46" stroke="#1c8a46"></path><path d="M1295.8337769191712,633.2972009014338L1324.2965334188193,771.1373503971845L1388.4919963683933,623.8462893571705Z" fill="#1b8946" stroke="#1b8946"></path><path d="M1388.4919963683933,623.8462893571705L1324.2965334188193,771.1373503971845L1436.12261261791,775.8413192164153Z" fill="#0e773e" stroke="#0e773e"></path><path d="M1388.4919963683933,623.8462893571705L1436.12261261791,775.8413192164153L1521.3150501810014,663.6245829518884Z" fill="#10793f" stroke="#10793f"></path><path d="M1521.3150501810014,663.6245829518884L1436.12261261791,775.8413192164153L1611.2968394625932,809.5904922857881Z" fill="#016036" stroke="#016036"></path><path d="M1521.3150501810014,663.6245829518884L1611.2968394625932,809.5904922857881L1686.8497596681118,619.7038029693067Z" fill="#0b6437" stroke="#0b6437"></path><path d="M1686.8497596681118,619.7038029693067L1611.2968394625932,809.5904922857881L1682.0644321013242,820.5723847355694Z" fill="#014f30" stroke="#014f30"></path><path d="M1686.8497596681118,619.7038029693067L1682.0644321013242,820.5723847355694L1823.4512329939753,708.9618567377329Z" fill="#075130" stroke="#075130"></path><path d="M1823.4512329939753,708.9618567377329L1682.0644321013242,820.5723847355694L1822.770812138915,786.4480167254806Z" fill="#003c28" stroke="#003c28"></path><path d="M-31.125192549079657,838.997002216056L-29.17817040346563,1015.5495353043079L51.009557861834764,985.0226742681116Z" fill="#7c7f83" stroke="#7c7f83"></path><path d="M-31.125192549079657,838.997002216056L51.009557861834764,985.0226742681116L23.506735330447555,802.0489612966776Z" fill="#7b928b" stroke="#7b928b"></path><path d="M23.506735330447555,802.0489612966776L51.009557861834764,985.0226742681116L220.5333150923252,795.7064211554825Z" fill="#789488" stroke="#789488"></path><path d="M220.5333150923252,795.7064211554825L51.009557861834764,985.0226742681116L235.39408617652953,947.0261890534312Z" fill="#75867f" stroke="#75867f"></path><path d="M220.5333150923252,795.7064211554825L235.39408617652953,947.0261890534312L402.1467134077102,781.1938888672739Z" fill="#6e967f" stroke="#6e967f"></path><path d="M402.1467134077102,781.1938888672739L235.39408617652953,947.0261890534312L410.1302247494459,1012.2023240011185Z" fill="#698072" stroke="#698072"></path><path d="M402.1467134077102,781.1938888672739L410.1302247494459,1012.2023240011185L479.4771601539105,815.2823127340525Z" fill="#638a71" stroke="#638a71"></path><path d="M479.4771601539105,815.2823127340525L410.1302247494459,1012.2023240011185L535.2284066565335,943.3069490455091Z" fill="#5f7967" stroke="#5f7967"></path><path d="M479.4771601539105,815.2823127340525L535.2284066565335,943.3069490455091L679.3950132653117,860.288760708645Z" fill="#578465" stroke="#578465"></path><path d="M679.3950132653117,860.288760708645L535.2284066565335,943.3069490455091L675.1352283451706,1025.3904960025102Z" fill="#516e57" stroke="#516e57"></path><path d="M679.3950132653117,860.288760708645L675.1352283451706,1025.3904960025102L836.1969383619726,1006.7228078562766Z" fill="#47684d" stroke="#47684d"></path><path d="M679.3950132653117,860.288760708645L836.1969383619726,1006.7228078562766L782.149255508557,813.8155577145517Z" fill="#437551" stroke="#437551"></path><path d="M782.149255508557,813.8155577145517L836.1969383619726,1006.7228078562766L916.1812924873084,921.5416202601045Z" fill="#3b6c48" stroke="#3b6c48"></path><path d="M782.149255508557,813.8155577145517L916.1812924873084,921.5416202601045L939.5927245169878,851.1312520969659Z" fill="#37784c" stroke="#37784c"></path><path d="M939.5927245169878,851.1312520969659L916.1812924873084,921.5416202601045L1180.385862076655,960.4905379470438Z" fill="#27633e" stroke="#27633e"></path><path d="M939.5927245169878,851.1312520969659L1180.385862076655,960.4905379470438L1143.281193561852,788.8377630338073Z" fill="#1f6a3f" stroke="#1f6a3f"></path><path d="M1143.281193561852,788.8377630338073L1180.385862076655,960.4905379470438L1324.2965334188193,771.1373503971845Z" fill="#16683a" stroke="#16683a"></path><path d="M1324.2965334188193,771.1373503971845L1180.385862076655,960.4905379470438L1225.6892531644553,987.0631771534681Z" fill="#145432" stroke="#145432"></path><path d="M1324.2965334188193,771.1373503971845L1225.6892531644553,987.0631771534681L1414.9653771612793,967.0693974941969Z" fill="#0e4b2e" stroke="#0e4b2e"></path><path d="M1324.2965334188193,771.1373503971845L1414.9653771612793,967.0693974941969L1436.12261261791,775.8413192164153Z" fill="#085632" stroke="#085632"></path><path d="M1436.12261261791,775.8413192164153L1414.9653771612793,967.0693974941969L1605.1399978157133,922.391633586958Z" fill="#003d28" stroke="#003d28"></path><path d="M1436.12261261791,775.8413192164153L1605.1399978157133,922.391633586958L1611.2968394625932,809.5904922857881Z" fill="#00442b" stroke="#00442b"></path><path d="M1611.2968394625932,809.5904922857881L1605.1399978157133,922.391633586958L1682.0644321013242,820.5723847355694Z" fill="#003726" stroke="#003726"></path><path d="M1682.0644321013242,820.5723847355694L1605.1399978157133,922.391633586958L1730.1013768929988,953.4507846739143Z" fill="#00251f" stroke="#00251f"></path><path d="M1682.0644321013242,820.5723847355694L1730.1013768929988,953.4507846739143L1822.770812138915,786.4480167254806Z" fill="#002a20" stroke="#002a20"></path><path d="M1822.770812138915,786.4480167254806L1730.1013768929988,953.4507846739143L1835.80192909576,978.3968875464052Z" fill="#001518" stroke="#001518"></path><path d="M-29.17817040346563,1015.5495353043079L675.1352283451706,1025.3904960025102L410.1302247494459,1012.2023240011185Z" fill="#697767" stroke="#697767"></path><path d="M-29.17817040346563,1015.5495353043079L410.1302247494459,1012.2023240011185L51.009557861834764,985.0226742681116Z" fill="#767c76" stroke="#767c76"></path><path d="M51.009557861834764,985.0226742681116L410.1302247494459,1012.2023240011185L235.39408617652953,947.0261890534312Z" fill="#717a74" stroke="#717a74"></path><path d="M410.1302247494459,1012.2023240011185L675.1352283451706,1025.3904960025102L535.2284066565335,943.3069490455091Z" fill="#59705a" stroke="#59705a"></path><path d="M675.1352283451706,1025.3904960025102L1835.80192909576,978.3968875464052L1225.6892531644553,987.0631771534681Z" fill="#144828" stroke="#144828"></path><path d="M675.1352283451706,1025.3904960025102L1225.6892531644553,987.0631771534681L836.1969383619726,1006.7228078562766Z" fill="#335f3a" stroke="#335f3a"></path><path d="M836.1969383619726,1006.7228078562766L1225.6892531644553,987.0631771534681L1180.385862076655,960.4905379470438Z" fill="#1f5432" stroke="#1f5432"></path><path d="M836.1969383619726,1006.7228078562766L1180.385862076655,960.4905379470438L916.1812924873084,921.5416202601045Z" fill="#2b5b3b" stroke="#2b5b3b"></path><path d="M1225.6892531644553,987.0631771534681L1835.80192909576,978.3968875464052L1414.9653771612793,967.0693974941969Z" fill="#002d1f" stroke="#002d1f"></path><path d="M1414.9653771612793,967.0693974941969L1835.80192909576,978.3968875464052L1730.1013768929988,953.4507846739143Z" fill="#001918" stroke="#001918"></path><path d="M1414.9653771612793,967.0693974941969L1730.1013768929988,953.4507846739143L1605.1399978157133,922.391633586958Z" fill="#00221d" stroke="#00221d"></path></g></svg>