<svg width="1700" height="860" xmlns="http://www.w3.org/2000/svg"><g><path d="M-58.369630090892315,-130.20862681791186L-134.59456717595458,994.271943429485L-88.50428097881377,423.8271431811154Z" fill="#cfcfcf" stroke="#cfcfcf"></path><path d="M-58.369630090892315,-130.20862681791186L-88.50428097881377,423.8271431811154L-44.16015017777681,81.8825083784759Z" fill="#ffffff" stroke="#ffffff"></path><path d="M-58.369630090892315,-130.20862681791186L-44.16015017777681,81.8825083784759L84.75055667571723,-105.22174892015755Z" fill="#ffffff" stroke="#ffffff"></path><path d="M-58.369630090892315,-130.20862681791186L84.75055667571723,-105.22174892015755L212.46762285009027,-132.60910972952843Z" fill="#fcfcfc" stroke="#fcfcfc"></path><path d="M84.75055667571723,-105.22174892015755L-44.16015017777681,81.8825083784759L78.732721041888,122.80922831967473Z" fill="#fefefe" stroke="#fefefe"></path><path d="M84.75055667571723,-105.22174892015755L78.732721041888,122.80922831967473L253.66347944363952,70.09059539996088Z" fill="#fafafa" stroke="#fafafa"></path><path d="M84.75055667571723,-105.22174892015755L253.66347944363952,70.09059539996088L212.46762285009027,-132.60910972952843Z" fill="#f8f8f8" stroke="#f8f8f8"></path><path d="M212.46762285009027,-132.60910972952843L253.66347944363952,70.09059539996088L432.0512309856713,-36.56142915599048Z" fill="#f1f1f1" stroke="#f1f1f1"></path><path d="M212.46762285009027,-132.60910972952843L432.0512309856713,-36.56142915599048L566.0736155323684,-131.81329837068915Z" fill="#eaeaea" stroke="#eaeaea"></path><path d="M432.0512309856713,-36.56142915599048L253.66347944363952,70.09059539996088L423.05321250110865,111.28349279053509Z" fill="#ededed" stroke="#ededed"></path><path d="M432.0512309856713,-36.56142915599048L423.05321250110865,111.28349279053509L542.4843900091946,127.06345489248633Z" fill="#e6e6e6" stroke="#e6e6e6"></path><path d="M432.0512309856713,-36.56142915599048L542.4843900091946,127.06345489248633L672.4353117495775,30.379666909575462Z" fill="#e0e0e0" stroke="#e0e0e0"></path><path d="M432.0512309856713,-36.56142915599048L672.4353117495775,30.379666909575462L566.0736155323684,-131.81329837068915Z" fill="#dfdfdf" stroke="#dfdfdf"></path><path d="M566.0736155323684,-131.81329837068915L672.4353117495775,30.379666909575462L661.6030361875892,-92.6056595519185Z" fill="#d7d7d7" stroke="#d7d7d7"></path><path d="M566.0736155323684,-131.81329837068915L661.6030361875892,-92.6056595519185L1232.0632145181298,-95.93780279159546Z" fill="#c5c5c5" stroke="#c5c5c5"></path><path d="M566.0736155323684,-131.81329837068915L1232.0632145181298,-95.93780279159546L1632.103843493387,-125.13204384595156Z" fill="#a8a8a8" stroke="#a8a8a8"></path><path d="M661.6030361875892,-92.6056595519185L672.4353117495775,30.379666909575462L817.5742943398654,-52.32512961141765Z" fill="#cfcfcf" stroke="#cfcfcf"></path><path d="M661.6030361875892,-92.6056595519185L817.5742943398654,-52.32512961141765L1232.0632145181298,-95.93780279159546Z" fill="#bdbdbd" stroke="#bdbdbd"></path><path d="M817.5742943398654,-52.32512961141765L672.4353117495775,30.379666909575462L881.9994691293687,20.211762059479952Z" fill="#c7c7c7" stroke="#c7c7c7"></path><path d="M817.5742943398654,-52.32512961141765L881.9994691293687,20.211762059479952L950.7495651952922,-21.119430446997285Z" fill="#bfbfbf" stroke="#bfbfbf"></path><path d="M817.5742943398654,-52.32512961141765L950.7495651952922,-21.119430446997285L1232.0632145181298,-95.93780279159546Z" fill="#b4b4b4" stroke="#b4b4b4"></path><path d="M950.7495651952922,-21.119430446997285L881.9994691293687,20.211762059479952L1011.5457155462354,48.42590988613665Z" fill="#b9b9b9" stroke="#b9b9b9"></path><path d="M950.7495651952922,-21.119430446997285L1011.5457155462354,48.42590988613665L1181.9910450652242,-29.617697317153215Z" fill="#b0b0b0" stroke="#b0b0b0"></path><path d="M950.7495651952922,-21.119430446997285L1181.9910450652242,-29.617697317153215L1232.0632145181298,-95.93780279159546Z" fill="#aaaaaa" stroke="#aaaaaa"></path><path d="M1181.9910450652242,-29.617697317153215L1011.5457155462354,48.42590988613665L1083.4497695881873,75.81669945269823Z" fill="#acacac" stroke="#acacac"></path><path d="M1181.9910450652242,-29.617697317153215L1083.4497695881873,75.81669945269823L1322.7970874402672,108.63901021890342Z" fill="#a1a1a1" stroke="#a1a1a1"></path><path d="M1181.9910450652242,-29.617697317153215L1322.7970874402672,108.63901021890342L1387.6667770184577,-56.85126140713692Z" fill="#959595" stroke="#959595"></path><path d="M1181.9910450652242,-29.617697317153215L1387.6667770184577,-56.85126140713692L1232.0632145181298,-95.93780279159546Z" fill="#999999" stroke="#999999"></path><path d="M1232.0632145181298,-95.93780279159546L1387.6667770184577,-56.85126140713692L1632.103843493387,-125.13204384595156Z" fill="#898989" stroke="#898989"></path><path d="M1387.6667770184577,-56.85126140713692L1322.7970874402672,108.63901021890342L1367.814867887646,107.38197547383606Z" fill="#8f8f8f" stroke="#8f8f8f"></path><path d="M1387.6667770184577,-56.85126140713692L1367.814867887646,107.38197547383606L1542.3057942744344,19.312634831294417Z" fill="#878787" stroke="#878787"></path><path d="M1387.6667770184577,-56.85126140713692L1542.3057942744344,19.312634831294417L1632.103843493387,-125.13204384595156Z" fill="#808080" stroke="#808080"></path><path d="M1632.103843493387,-125.13204384595156L1542.3057942744344,19.312634831294417L1748.2349583227187,75.70503280498087Z" fill="#808080" stroke="#808080"></path><path d="M1632.103843493387,-125.13204384595156L1748.2349583227187,75.70503280498087L1767.4612498562783,-114.69067705795169Z" fill="#808080" stroke="#808080"></path><path d="M1767.4612498562783,-114.69067705795169L1748.2349583227187,75.70503280498087L1819.870250215754,79.041988234967Z" fill="#808080" stroke="#808080"></path><path d="M1767.4612498562783,-114.69067705795169L1819.870250215754,79.041988234967L1895.8108045253903,-89.36773742549121Z" fill="#808080" stroke="#808080"></path><path d="M1895.8108045253903,-89.36773742549121L1819.870250215754,79.041988234967L1850.7379562593997,170.007098140195Z" fill="#808080" stroke="#808080"></path><path d="M1895.8108045253903,-89.36773742549121L1850.7379562593997,170.007098140195L1907.1830707602203,485.40304915979505Z" fill="#808080" stroke="#808080"></path><path d="M-44.16015017777681,81.8825083784759L-88.50428097881377,423.8271431811154L-29.932520147413015,172.37494206056Z" fill="#fafafa" stroke="#fafafa"></path><path d="M-44.16015017777681,81.8825083784759L-29.932520147413015,172.37494206056L78.732721041888,122.80922831967473Z" fill="#ffffff" stroke="#ffffff"></path><path d="M78.732721041888,122.80922831967473L-29.932520147413015,172.37494206056L23.134064376354218,231.32296769879758Z" fill="#fefefe" stroke="#fefefe"></path><path d="M78.732721041888,122.80922831967473L23.134064376354218,231.32296769879758L200.71880905888975,185.51935298368335Z" fill="#fbfbfb" stroke="#fbfbfb"></path><path d="M78.732721041888,122.80922831967473L200.71880905888975,185.51935298368335L253.66347944363952,70.09059539996088Z" fill="#f8f8f8" stroke="#f8f8f8"></path><path d="M253.66347944363952,70.09059539996088L200.71880905888975,185.51935298368335L384.97106965631247,254.2262678593397Z" fill="#f2f2f2" stroke="#f2f2f2"></path><path d="M253.66347944363952,70.09059539996088L384.97106965631247,254.2262678593397L423.05321250110865,111.28349279053509Z" fill="#eeeeee" stroke="#eeeeee"></path><path d="M423.05321250110865,111.28349279053509L384.97106965631247,254.2262678593397L542.4843900091946,127.06345489248633Z" fill="#e7e7e7" stroke="#e7e7e7"></path><path d="M542.4843900091946,127.06345489248633L384.97106965631247,254.2262678593397L581.4109589997679,217.04950206913054Z" fill="#e1e1e1" stroke="#e1e1e1"></path><path d="M542.4843900091946,127.06345489248633L581.4109589997679,217.04950206913054L672.4353117495775,30.379666909575462Z" fill="#dbdbdb" stroke="#dbdbdb"></path><path d="M672.4353117495775,30.379666909575462L581.4109589997679,217.04950206913054L715.6198328174651,257.4538223259151Z" fill="#d5d5d5" stroke="#d5d5d5"></path><path d="M672.4353117495775,30.379666909575462L715.6198328174651,257.4538223259151L837.9292400367558,223.80574964918196Z" fill="#cccccc" stroke="#cccccc"></path><path d="M672.4353117495775,30.379666909575462L837.9292400367558,223.80574964918196L881.9994691293687,20.211762059479952Z" fill="#c7c7c7" stroke="#c7c7c7"></path><path d="M881.9994691293687,20.211762059479952L837.9292400367558,223.80574964918196L1011.5457155462354,48.42590988613665Z" fill="#bcbcbc" stroke="#bcbcbc"></path><path d="M1011.5457155462354,48.42590988613665L837.9292400367558,223.80574964918196L986.6979593876749,256.60933348350227Z" fill="#b9b9b9" stroke="#b9b9b9"></path><path d="M1011.5457155462354,48.42590988613665L986.6979593876749,256.60933348350227L1083.4497695881873,75.81669945269823Z" fill="#b2b2b2" stroke="#b2b2b2"></path><path d="M1083.4497695881873,75.81669945269823L986.6979593876749,256.60933348350227L1151.8717271648347,219.34746321290731Z" fill="#aeaeae" stroke="#aeaeae"></path><path d="M1083.4497695881873,75.81669945269823L1151.8717271648347,219.34746321290731L1322.7970874402672,108.63901021890342Z" fill="#a2a2a2" stroke="#a2a2a2"></path><path d="M1322.7970874402672,108.63901021890342L1151.8717271648347,219.34746321290731L1298.2552888803184,247.70407615229487Z" fill="#9a9a9a" stroke="#9a9a9a"></path><path d="M1322.7970874402672,108.63901021890342L1298.2552888803184,247.70407615229487L1367.814867887646,107.38197547383606Z" fill="#929292" stroke="#929292"></path><path d="M1367.814867887646,107.38197547383606L1298.2552888803184,247.70407615229487L1464.6468079928309,259.34600913897157Z" fill="#8b8b8b" stroke="#8b8b8b"></path><path d="M1367.814867887646,107.38197547383606L1464.6468079928309,259.34600913897157L1542.3057942744344,19.312634831294417Z" fill="#858585" stroke="#858585"></path><path d="M1542.3057942744344,19.312634831294417L1464.6468079928309,259.34600913897157L1590.6640744395554,258.4137120936066Z" fill="#808080" stroke="#808080"></path><path d="M1542.3057942744344,19.312634831294417L1590.6640744395554,258.4137120936066L1748.2349583227187,75.70503280498087Z" fill="#808080" stroke="#808080"></path><path d="M1748.2349583227187,75.70503280498087L1590.6640744395554,258.4137120936066L1743.415784072131,266.8241083994508Z" fill="#7e7e7e" stroke="#7e7e7e"></path><path d="M1748.2349583227187,75.70503280498087L1743.415784072131,266.8241083994508L1850.7379562593997,170.007098140195Z" fill="#808080" stroke="#808080"></path><path d="M1748.2349583227187,75.70503280498087L1850.7379562593997,170.007098140195L1819.870250215754,79.041988234967Z" fill="#808080" stroke="#808080"></path><path d="M-29.932520147413015,172.37494206056L-88.50428097881377,423.8271431811154L23.134064376354218,231.32296769879758Z" fill="#f2f2f2" stroke="#f2f2f2"></path><path d="M23.134064376354218,231.32296769879758L-88.50428097881377,423.8271431811154L101.98527803644538,408.5979900788516Z" fill="#dfdfdf" stroke="#dfdfdf"></path><path d="M23.134064376354218,231.32296769879758L101.98527803644538,408.5979900788516L232.45884041301906,359.0430198982358Z" fill="#e1e1e1" stroke="#e1e1e1"></path><path d="M23.134064376354218,231.32296769879758L232.45884041301906,359.0430198982358L200.71880905888975,185.51935298368335Z" fill="#efefef" stroke="#efefef"></path><path d="M200.71880905888975,185.51935298368335L232.45884041301906,359.0430198982358L384.97106965631247,254.2262678593397Z" fill="#e7e7e7" stroke="#e7e7e7"></path><path d="M384.97106965631247,254.2262678593397L232.45884041301906,359.0430198982358L399.8253976274282,389.0766775421798Z" fill="#d4d4d4" stroke="#d4d4d4"></path><path d="M384.97106965631247,254.2262678593397L399.8253976274282,389.0766775421798L466.92475559189916,340.9203711524606Z" fill="#d0d0d0" stroke="#d0d0d0"></path><path d="M384.97106965631247,254.2262678593397L466.92475559189916,340.9203711524606L581.4109589997679,217.04950206913054Z" fill="#d8d8d8" stroke="#d8d8d8"></path><path d="M581.4109589997679,217.04950206913054L466.92475559189916,340.9203711524606L705.7335407473147,355.77133976854384Z" fill="#c9c9c9" stroke="#c9c9c9"></path><path d="M581.4109589997679,217.04950206913054L705.7335407473147,355.77133976854384L715.6198328174651,257.4538223259151Z" fill="#c6c6c6" stroke="#c6c6c6"></path><path d="M715.6198328174651,257.4538223259151L705.7335407473147,355.77133976854384L825.3272825013846,342.0448274631053Z" fill="#b5b5b5" stroke="#b5b5b5"></path><path d="M715.6198328174651,257.4538223259151L825.3272825013846,342.0448274631053L837.9292400367558,223.80574964918196Z" fill="#bababa" stroke="#bababa"></path><path d="M837.9292400367558,223.80574964918196L825.3272825013846,342.0448274631053L959.2171159386635,327.14784395881Z" fill="#aeaeae" stroke="#aeaeae"></path><path d="M837.9292400367558,223.80574964918196L959.2171159386635,327.14784395881L986.6979593876749,256.60933348350227Z" fill="#aeaeae" stroke="#aeaeae"></path><path d="M986.6979593876749,256.60933348350227L959.2171159386635,327.14784395881L1163.4222110453993,325.6936356704682Z" fill="#9e9e9e" stroke="#9e9e9e"></path><path d="M986.6979593876749,256.60933348350227L1163.4222110453993,325.6936356704682L1151.8717271648347,219.34746321290731Z" fill="#a0a0a0" stroke="#a0a0a0"></path><path d="M1151.8717271648347,219.34746321290731L1163.4222110453993,325.6936356704682L1298.2552888803184,247.70407615229487Z" fill="#959595" stroke="#959595"></path><path d="M1298.2552888803184,247.70407615229487L1163.4222110453993,325.6936356704682L1282.1992916800082,384.76893715560436Z" fill="#848484" stroke="#848484"></path><path d="M1298.2552888803184,247.70407615229487L1282.1992916800082,384.76893715560436L1386.7673371452838,379.95062068104744Z" fill="#777777" stroke="#777777"></path><path d="M1298.2552888803184,247.70407615229487L1386.7673371452838,379.95062068104744L1464.6468079928309,259.34600913897157Z" fill="#7b7b7b" stroke="#7b7b7b"></path><path d="M1464.6468079928309,259.34600913897157L1386.7673371452838,379.95062068104744L1540.374540137127,412.56584730930626Z" fill="#666666" stroke="#666666"></path><path d="M1464.6468079928309,259.34600913897157L1540.374540137127,412.56584730930626L1590.6640744395554,258.4137120936066Z" fill="#6b6b6b" stroke="#6b6b6b"></path><path d="M1590.6640744395554,258.4137120936066L1540.374540137127,412.56584730930626L1740.6351621821523,353.9685653708875Z" fill="#646464" stroke="#646464"></path><path d="M1590.6640744395554,258.4137120936066L1740.6351621821523,353.9685653708875L1743.415784072131,266.8241083994508Z" fill="#6f6f6f" stroke="#6f6f6f"></path><path d="M1743.415784072131,266.8241083994508L1740.6351621821523,353.9685653708875L1827.5958908814937,329.37967996113Z" fill="#6a6a6a" stroke="#6a6a6a"></path><path d="M1743.415784072131,266.8241083994508L1827.5958908814937,329.37967996113L1850.7379562593997,170.007098140195Z" fill="#767676" stroke="#767676"></path><path d="M1850.7379562593997,170.007098140195L1827.5958908814937,329.37967996113L1907.1830707602203,485.40304915979505Z" fill="#676767" stroke="#676767"></path><path d="M-88.50428097881377,423.8271431811154L-134.59456717595458,994.271943429485L-112.80817142687738,778.4141782019287Z" fill="#919191" stroke="#919191"></path><path d="M-88.50428097881377,423.8271431811154L-112.80817142687738,778.4141782019287L-59.0415336471051,522.9947343282402Z" fill="#b0b0b0" stroke="#b0b0b0"></path><path d="M-88.50428097881377,423.8271431811154L-59.0415336471051,522.9947343282402L25.266585191711783,491.55277859419584Z" fill="#c4c4c4" stroke="#c4c4c4"></path><path d="M-88.50428097881377,423.8271431811154L25.266585191711783,491.55277859419584L101.98527803644538,408.5979900788516Z" fill="#cccccc" stroke="#cccccc"></path><path d="M101.98527803644538,408.5979900788516L25.266585191711783,491.55277859419584L194.8247811757028,530.3532319329679Z" fill="#c0c0c0" stroke="#c0c0c0"></path><path d="M101.98527803644538,408.5979900788516L194.8247811757028,530.3532319329679L232.45884041301906,359.0430198982358Z" fill="#c7c7c7" stroke="#c7c7c7"></path><path d="M232.45884041301906,359.0430198982358L194.8247811757028,530.3532319329679L383.5693912860006,530.6978992000222Z" fill="#b9b9b9" stroke="#b9b9b9"></path><path d="M232.45884041301906,359.0430198982358L383.5693912860006,530.6978992000222L399.8253976274282,389.0766775421798Z" fill="#bfbfbf" stroke="#bfbfbf"></path><path d="M399.8253976274282,389.0766775421798L383.5693912860006,530.6978992000222L474.63885272853076,570.7706759031862Z" fill="#aaaaaa" stroke="#aaaaaa"></path><path d="M399.8253976274282,389.0766775421798L474.63885272853076,570.7706759031862L466.92475559189916,340.9203711524606Z" fill="#b6b6b6" stroke="#b6b6b6"></path><path d="M466.92475559189916,340.9203711524606L474.63885272853076,570.7706759031862L615.4083383828402,515.8186510484666Z" fill="#a7a7a7" stroke="#a7a7a7"></path><path d="M466.92475559189916,340.9203711524606L615.4083383828402,515.8186510484666L705.7335407473147,355.77133976854384Z" fill="#b0b0b0" stroke="#b0b0b0"></path><path d="M705.7335407473147,355.77133976854384L615.4083383828402,515.8186510484666L788.91960256733,512.2884621005505Z" fill="#999999" stroke="#999999"></path><path d="M705.7335407473147,355.77133976854384L788.91960256733,512.2884621005505L825.3272825013846,342.0448274631053Z" fill="#9f9f9f" stroke="#9f9f9f"></path><path d="M825.3272825013846,342.0448274631053L788.91960256733,512.2884621005505L996.7882655002177,505.187303815037Z" fill="#8b8b8b" stroke="#8b8b8b"></path><path d="M825.3272825013846,342.0448274631053L996.7882655002177,505.187303815037L959.2171159386635,327.14784395881Z" fill="#939393" stroke="#939393"></path><path d="M959.2171159386635,327.14784395881L996.7882655002177,505.187303815037L1163.4222110453993,325.6936356704682Z" fill="#8a8a8a" stroke="#8a8a8a"></path><path d="M1163.4222110453993,325.6936356704682L996.7882655002177,505.187303815037L1129.4564082752913,581.6174777783453Z" fill="#727272" stroke="#727272"></path><path d="M1163.4222110453993,325.6936356704682L1129.4564082752913,581.6174777783453L1282.1992916800082,384.76893715560436Z" fill="#717171" stroke="#717171"></path><path d="M1282.1992916800082,384.76893715560436L1129.4564082752913,581.6174777783453L1320.994204301387,497.21817028708756Z" fill="#5f5f5f" stroke="#5f5f5f"></path><path d="M1282.1992916800082,384.76893715560436L1320.994204301387,497.21817028708756L1386.7673371452838,379.95062068104744Z" fill="#636363" stroke="#636363"></path><path d="M1386.7673371452838,379.95062068104744L1320.994204301387,497.21817028708756L1383.236829629168,570.7943222019821Z" fill="#525252" stroke="#525252"></path><path d="M1386.7673371452838,379.95062068104744L1383.236829629168,570.7943222019821L1540.374540137127,412.56584730930626Z" fill="#515151" stroke="#515151"></path><path d="M1540.374540137127,412.56584730930626L1383.236829629168,570.7943222019821L1592.770784161985,552.7561368886381Z" fill="#3e3e3e" stroke="#3e3e3e"></path><path d="M1540.374540137127,412.56584730930626L1592.770784161985,552.7561368886381L1676.119489716366,491.68078660033643Z" fill="#434343" stroke="#434343"></path><path d="M1540.374540137127,412.56584730930626L1676.119489716366,491.68078660033643L1740.6351621821523,353.9685653708875Z" fill="#525252" stroke="#525252"></path><path d="M1740.6351621821523,353.9685653708875L1676.119489716366,491.68078660033643L1907.1830707602203,485.40304915979505Z" fill="#4c4c4c" stroke="#4c4c4c"></path><path d="M1740.6351621821523,353.9685653708875L1907.1830707602203,485.40304915979505L1827.5958908814937,329.37967996113Z" fill="#585858" stroke="#585858"></path><path d="M-59.0415336471051,522.9947343282402L-112.80817142687738,778.4141782019287L-30.6519181933254,660.8734745532274Z" fill="#9a9a9a" stroke="#9a9a9a"></path><path d="M-59.0415336471051,522.9947343282402L-30.6519181933254,660.8734745532274L88.97199016995728,618.9097791910172Z" fill="#a9a9a9" stroke="#a9a9a9"></path><path d="M-59.0415336471051,522.9947343282402L88.97199016995728,618.9097791910172L25.266585191711783,491.55277859419584Z" fill="#b6b6b6" stroke="#b6b6b6"></path><path d="M25.266585191711783,491.55277859419584L88.97199016995728,618.9097791910172L194.8247811757028,530.3532319329679Z" fill="#b2b2b2" stroke="#b2b2b2"></path><path d="M194.8247811757028,530.3532319329679L88.97199016995728,618.9097791910172L220.29730081558228,640.2732514310628Z" fill="#a4a4a4" stroke="#a4a4a4"></path><path d="M194.8247811757028,530.3532319329679L220.29730081558228,640.2732514310628L383.5693912860006,530.6978992000222Z" fill="#a6a6a6" stroke="#a6a6a6"></path><path d="M383.5693912860006,530.6978992000222L220.29730081558228,640.2732514310628L369.6362219005823,687.5799452047795Z" fill="#949494" stroke="#949494"></path><path d="M383.5693912860006,530.6978992000222L369.6362219005823,687.5799452047795L474.63885272853076,570.7706759031862Z" fill="#959595" stroke="#959595"></path><path d="M474.63885272853076,570.7706759031862L369.6362219005823,687.5799452047795L482.6171516440809,702.9515141062438Z" fill="#828282" stroke="#828282"></path><path d="M474.63885272853076,570.7706759031862L482.6171516440809,702.9515141062438L615.4083383828402,515.8186510484666Z" fill="#8c8c8c" stroke="#8c8c8c"></path><path d="M615.4083383828402,515.8186510484666L482.6171516440809,702.9515141062438L709.4447513949126,694.180351914838Z" fill="#7a7a7a" stroke="#7a7a7a"></path><path d="M615.4083383828402,515.8186510484666L709.4447513949126,694.180351914838L788.91960256733,512.2884621005505Z" fill="#828282" stroke="#828282"></path><path d="M788.91960256733,512.2884621005505L709.4447513949126,694.180351914838L812.9164645727724,668.5859502106905Z" fill="#6c6c6c" stroke="#6c6c6c"></path><path d="M788.91960256733,512.2884621005505L812.9164645727724,668.5859502106905L996.7882655002177,505.187303815037Z" fill="#747474" stroke="#747474"></path><path d="M996.7882655002177,505.187303815037L812.9164645727724,668.5859502106905L1021.9659449066967,636.300656888634Z" fill="#626262" stroke="#626262"></path><path d="M996.7882655002177,505.187303815037L1021.9659449066967,636.300656888634L1129.4564082752913,581.6174777783453Z" fill="#616161" stroke="#616161"></path><path d="M1129.4564082752913,581.6174777783453L1021.9659449066967,636.300656888634L1128.3107674308121,694.5622301381081Z" fill="#4c4c4c" stroke="#4c4c4c"></path><path d="M1129.4564082752913,581.6174777783453L1128.3107674308121,694.5622301381081L1253.6776528693736,708.7326629832387Z" fill="#3d3d3d" stroke="#3d3d3d"></path><path d="M1129.4564082752913,581.6174777783453L1253.6776528693736,708.7326629832387L1320.994204301387,497.21817028708756Z" fill="#484848" stroke="#484848"></path><path d="M1320.994204301387,497.21817028708756L1253.6776528693736,708.7326629832387L1383.236829629168,570.7943222019821Z" fill="#3f3f3f" stroke="#3f3f3f"></path><path d="M1383.236829629168,570.7943222019821L1253.6776528693736,708.7326629832387L1374.945673495531,676.2158218491822Z" fill="#2c2c2c" stroke="#2c2c2c"></path><path d="M1383.236829629168,570.7943222019821L1374.945673495531,676.2158218491822L1594.4575196877122,665.9395009372383Z" fill="#252525" stroke="#252525"></path><path d="M1383.236829629168,570.7943222019821L1594.4575196877122,665.9395009372383L1592.770784161985,552.7561368886381Z" fill="#2b2b2b" stroke="#2b2b2b"></path><path d="M1592.770784161985,552.7561368886381L1594.4575196877122,665.9395009372383L1759.244668437168,636.8458699341863Z" fill="#242424" stroke="#242424"></path><path d="M1592.770784161985,552.7561368886381L1759.244668437168,636.8458699341863L1676.119489716366,491.68078660033643Z" fill="#343434" stroke="#343434"></path><path d="M1676.119489716366,491.68078660033643L1759.244668437168,636.8458699341863L1907.1830707602203,485.40304915979505Z" fill="#383838" stroke="#383838"></path><path d="M1907.1830707602203,485.40304915979505L1759.244668437168,636.8458699341863L1885.506528429687,634.5832099299878Z" fill="#2e2e2e" stroke="#2e2e2e"></path><path d="M1907.1830707602203,485.40304915979505L1885.506528429687,634.5832099299878L1903.736360706389,782.4409122392535Z" fill="#202020" stroke="#202020"></path><path d="M-30.6519181933254,660.8734745532274L-112.80817142687738,778.4141782019287L67.35391049645841,784.531824728474Z" fill="#909090" stroke="#909090"></path><path d="M-30.6519181933254,660.8734745532274L67.35391049645841,784.531824728474L88.97199016995728,618.9097791910172Z" fill="#939393" stroke="#939393"></path><path d="M88.97199016995728,618.9097791910172L67.35391049645841,784.531824728474L220.29730081558228,640.2732514310628Z" fill="#909090" stroke="#909090"></path><path d="M220.29730081558228,640.2732514310628L67.35391049645841,784.531824728474L171.82414191775024,878.1678034923971Z" fill="#898989" stroke="#898989"></path><path d="M220.29730081558228,640.2732514310628L171.82414191775024,878.1678034923971L369.6362219005823,687.5799452047795Z" fill="#858585" stroke="#858585"></path><path d="M369.6362219005823,687.5799452047795L171.82414191775024,878.1678034923971L368.4267906937748,859.237927403301Z" fill="#7d7d7d" stroke="#7d7d7d"></path><path d="M369.6362219005823,687.5799452047795L368.4267906937748,859.237927403301L473.7046863231808,821.2499763071537Z" fill="#787878" stroke="#787878"></path><path d="M369.6362219005823,687.5799452047795L473.7046863231808,821.2499763071537L482.6171516440809,702.9515141062438Z" fill="#797979" stroke="#797979"></path><path d="M482.6171516440809,702.9515141062438L473.7046863231808,821.2499763071537L640.2175780478865,776.1347165890038Z" fill="#707070" stroke="#707070"></path><path d="M482.6171516440809,702.9515141062438L640.2175780478865,776.1347165890038L709.4447513949126,694.180351914838Z" fill="#6c6c6c" stroke="#6c6c6c"></path><path d="M709.4447513949126,694.180351914838L640.2175780478865,776.1347165890038L835.3741210699081,772.5597310625017Z" fill="#5e5e5e" stroke="#5e5e5e"></path><path d="M709.4447513949126,694.180351914838L835.3741210699081,772.5597310625017L812.9164645727724,668.5859502106905Z" fill="#5b5b5b" stroke="#5b5b5b"></path><path d="M812.9164645727724,668.5859502106905L835.3741210699081,772.5597310625017L932.8064787201583,801.085860170424Z" fill="#525252" stroke="#525252"></path><path d="M812.9164645727724,668.5859502106905L932.8064787201583,801.085860170424L1021.9659449066967,636.300656888634Z" fill="#4f4f4f" stroke="#4f4f4f"></path><path d="M1021.9659449066967,636.300656888634L932.8064787201583,801.085860170424L1128.3107674308121,694.5622301381081Z" fill="#454545" stroke="#454545"></path><path d="M1128.3107674308121,694.5622301381081L932.8064787201583,801.085860170424L1163.7647406198084,799.175813505426Z" fill="#3d3d3d" stroke="#3d3d3d"></path><path d="M1128.3107674308121,694.5622301381081L1163.7647406198084,799.175813505426L1253.6776528693736,708.7326629832387Z" fill="#343434" stroke="#343434"></path><path d="M1253.6776528693736,708.7326629832387L1163.7647406198084,799.175813505426L1238.7440947629511,835.5973313190043Z" fill="#2d2d2d" stroke="#2d2d2d"></path><path d="M1253.6776528693736,708.7326629832387L1238.7440947629511,835.5973313190043L1378.0563194677234,786.3723397068679Z" fill="#252525" stroke="#252525"></path><path d="M1253.6776528693736,708.7326629832387L1378.0563194677234,786.3723397068679L1374.945673495531,676.2158218491822Z" fill="#232323" stroke="#232323"></path><path d="M1374.945673495531,676.2158218491822L1378.0563194677234,786.3723397068679L1570.4815984144807,814.4872054550797Z" fill="#171717" stroke="#171717"></path><path d="M1374.945673495531,676.2158218491822L1570.4815984144807,814.4872054550797L1594.4575196877122,665.9395009372383Z" fill="#131313" stroke="#131313"></path><path d="M1594.4575196877122,665.9395009372383L1570.4815984144807,814.4872054550797L1739.6826685220003,791.9564011506736Z" fill="#101010" stroke="#101010"></path><path d="M1594.4575196877122,665.9395009372383L1739.6826685220003,791.9564011506736L1759.244668437168,636.8458699341863Z" fill="#141414" stroke="#141414"></path><path d="M1759.244668437168,636.8458699341863L1739.6826685220003,791.9564011506736L1903.736360706389,782.4409122392535Z" fill="#111111" stroke="#111111"></path><path d="M1759.244668437168,636.8458699341863L1903.736360706389,782.4409122392535L1885.506528429687,634.5832099299878Z" fill="#151515" stroke="#151515"></path><path d="M-112.80817142687738,778.4141782019287L-134.59456717595458,994.271943429485L29.638822004199028,927.2481767646968Z" fill="#858585" stroke="#858585"></path><path d="M-112.80817142687738,778.4141782019287L29.638822004199028,927.2481767646968L67.35391049645841,784.531824728474Z" fill="#8a8a8a" stroke="#8a8a8a"></path><path d="M67.35391049645841,784.531824728474L29.638822004199028,927.2481767646968L171.82414191775024,878.1678034923971Z" fill="#848484" stroke="#848484"></path><path d="M171.82414191775024,878.1678034923971L29.638822004199028,927.2481767646968L175.41228462941945,965.5061003006995Z" fill="#7e7e7e" stroke="#7e7e7e"></path><path d="M171.82414191775024,878.1678034923971L175.41228462941945,965.5061003006995L368.4267906937748,859.237927403301Z" fill="#7a7a7a" stroke="#7a7a7a"></path><path d="M368.4267906937748,859.237927403301L175.41228462941945,965.5061003006995L413.70294850319624,1015.5947855953127Z" fill="#727272" stroke="#727272"></path><path d="M368.4267906937748,859.237927403301L413.70294850319624,1015.5947855953127L495.49735109321773,920.4002508334816Z" fill="#6c6c6c" stroke="#6c6c6c"></path><path d="M368.4267906937748,859.237927403301L495.49735109321773,920.4002508334816L473.7046863231808,821.2499763071537Z" fill="#6f6f6f" stroke="#6f6f6f"></path><path d="M473.7046863231808,821.2499763071537L495.49735109321773,920.4002508334816L640.2175780478865,776.1347165890038Z" fill="#6a6a6a" stroke="#6a6a6a"></path><path d="M640.2175780478865,776.1347165890038L495.49735109321773,920.4002508334816L653.6901096347719,948.807640420273Z" fill="#626262" stroke="#626262"></path><path d="M640.2175780478865,776.1347165890038L653.6901096347719,948.807640420273L766.7629586253315,951.8528271093965Z" fill="#585858" stroke="#585858"></path><path d="M640.2175780478865,776.1347165890038L766.7629586253315,951.8528271093965L835.3741210699081,772.5597310625017Z" fill="#565656" stroke="#565656"></path><path d="M835.3741210699081,772.5597310625017L766.7629586253315,951.8528271093965L932.8064787201583,801.085860170424Z" fill="#4c4c4c" stroke="#4c4c4c"></path><path d="M932.8064787201583,801.085860170424L766.7629586253315,951.8528271093965L988.5547942109406,967.7743077557534Z" fill="#434343" stroke="#434343"></path><path d="M932.8064787201583,801.085860170424L988.5547942109406,967.7743077557534L1163.7647406198084,799.175813505426Z" fill="#3b3b3b" stroke="#3b3b3b"></path><path d="M1163.7647406198084,799.175813505426L988.5547942109406,967.7743077557534L1083.379898769781,996.316101718694Z" fill="#323232" stroke="#323232"></path><path d="M1163.7647406198084,799.175813505426L1083.379898769781,996.316101718694L1238.7440947629511,835.5973313190043Z" fill="#2d2d2d" stroke="#2d2d2d"></path><path d="M1238.7440947629511,835.5973313190043L1083.379898769781,996.316101718694L1254.7401228547096,975.3622734826058Z" fill="#252525" stroke="#252525"></path><path d="M1238.7440947629511,835.5973313190043L1254.7401228547096,975.3622734826058L1378.0563194677234,786.3723397068679Z" fill="#1e1e1e" stroke="#1e1e1e"></path><path d="M1378.0563194677234,786.3723397068679L1254.7401228547096,975.3622734826058L1427.4755895417184,988.211514512077Z" fill="#141414" stroke="#141414"></path><path d="M1378.0563194677234,786.3723397068679L1427.4755895417184,988.211514512077L1570.4815984144807,814.4872054550797Z" fill="#0d0d0d" stroke="#0d0d0d"></path><path d="M1570.4815984144807,814.4872054550797L1427.4755895417184,988.211514512077L1558.110858388245,1010.8684452529997Z" fill="#030303" stroke="#030303"></path><path d="M1570.4815984144807,814.4872054550797L1558.110858388245,1010.8684452529997L1689.214953398332,961.7251063417643Z" fill="#030303" stroke="#030303"></path><path d="M1570.4815984144807,814.4872054550797L1689.214953398332,961.7251063417643L1739.6826685220003,791.9564011506736Z" fill="#090909" stroke="#090909"></path><path d="M1739.6826685220003,791.9564011506736L1689.214953398332,961.7251063417643L1825.0010288134217,1006.876509077847Z" fill="#040404" stroke="#040404"></path><path d="M1739.6826685220003,791.9564011506736L1825.0010288134217,1006.876509077847L1903.736360706389,782.4409122392535Z" fill="#080808" stroke="#080808"></path><path d="M-134.59456717595458,994.271943429485L413.70294850319624,1015.5947855953127L175.41228462941945,965.5061003006995Z" fill="#7a7a7a" stroke="#7a7a7a"></path><path d="M-134.59456717595458,994.271943429485L175.41228462941945,965.5061003006995L29.638822004199028,927.2481767646968Z" fill="#7f7f7f" stroke="#7f7f7f"></path><path d="M413.70294850319624,1015.5947855953127L1558.110858388245,1010.8684452529997L1083.379898769781,996.316101718694Z" fill="#333333" stroke="#333333"></path><path d="M413.70294850319624,1015.5947855953127L1083.379898769781,996.316101718694L766.7629586253315,951.8528271093965Z" fill="#4b4b4b" stroke="#4b4b4b"></path><path d="M413.70294850319624,1015.5947855953127L766.7629586253315,951.8528271093965L653.6901096347719,948.807640420273Z" fill="#5a5a5a" stroke="#5a5a5a"></path><path d="M413.70294850319624,1015.5947855953127L653.6901096347719,948.807640420273L495.49735109321773,920.4002508334816Z" fill="#636363" stroke="#636363"></path><path d="M766.7629586253315,951.8528271093965L1083.379898769781,996.316101718694L988.5547942109406,967.7743077557534Z" fill="#3a3a3a" stroke="#3a3a3a"></path><path d="M1083.379898769781,996.316101718694L1558.110858388245,1010.8684452529997L1427.4755895417184,988.211514512077Z" fill="#0f0f0f" stroke="#0f0f0f"></path><path d="M1083.379898769781,996.316101718694L1427.4755895417184,988.211514512077L1254.7401228547096,975.3622734826058Z" fill="#1b1b1b" stroke="#1b1b1b"></path><path d="M1558.110858388245,1010.8684452529997L1825.0010288134217,1006.876509077847L1689.214953398332,961.7251063417643Z" fill="#000000" stroke="#000000"></path></g></svg>